%
M48
M72
T01C0.0236
T02C0.0240
T03C0.0320
T04C0.0360
T05C0.0394
T06C0.0400
T07C0.0440
T08C0.0470
%
T01
X4850Y12100
X2850Y12350
X5100Y16350
X5100Y17350
X5350Y18600
X4100Y22350
X4350Y23600
X9600Y17350
X9600Y16850
X14350Y15100
X13600Y22350
X15100Y27850
X11100Y27850
X20100Y27850
X20600Y26350
X22350Y28100
X15600Y3850
T02
X4850Y12850
X3350Y12850
T03
X5100Y9850
X5600Y8600
X5600Y7600
X4100Y8350
X4100Y6350
X4100Y5350
X2100Y5350
X7600Y7600
X7600Y8600
X8100Y9850
X9100Y8850
X10100Y9850
X11350Y9100
X11350Y7100
X10850Y6350
X10850Y4350
X9100Y4850
X13850Y6350
X15100Y6850
X15100Y4850
X14600Y2350
X17600Y2350
X22100Y2350
X22100Y3850
X22100Y4850
X22100Y5850
X22100Y6850
X19600Y8350
X17600Y8350
X18100Y12100
X19350Y12100
X16850Y13600
X15350Y15100
X14850Y15850
X14350Y15100
X16850Y15600
X16850Y16600
X18100Y17350
X18100Y18350
X17350Y19600
X16850Y18600
X14100Y18350
X13100Y18350
X12100Y18350
X11100Y18350
X10100Y18350
X9100Y18350
X8100Y18350
X7100Y18350
X6100Y18350
X6100Y21350
X7100Y21350
X8100Y21350
X9100Y21350
X10100Y21350
X11100Y21350
X12100Y21350
X13100Y21350
X14100Y21350
X14100Y24350
X12600Y25350
X10850Y23850
X10600Y25350
X8850Y23850
X7100Y24350
X7100Y26350
X14600Y26100
X17600Y26100
X18100Y24350
X19350Y24600
X19350Y26600
X21600Y24850
X22850Y27350
X24850Y27350
X24600Y24850
X23100Y21850
X23100Y19850
X21600Y18850
X20350Y19600
X20100Y18350
X20100Y17350
X21600Y14850
X23350Y14850
X23350Y16850
X24600Y17350
X24600Y19350
X23350Y12100
X25100Y6850
X25100Y5850
X25100Y4850
X25100Y3850
X25100Y2350
X14100Y12100
X13850Y11350
X10100Y11850
T04
X14350Y13350
X15350Y13350
T05
X20100Y13350
X21100Y13350
X22100Y13350
X10350Y26350
X9350Y26350
X8350Y26350
X8100Y3350
X9100Y3350
X7100Y3350
T06
X2100Y10850
X2100Y11850
X2100Y12850
X2100Y13850
X2100Y14850
X2100Y16350
X2100Y17350
X2100Y18350
X2100Y19350
X2100Y20350
X2100Y21350
X2100Y22350
X2100Y23350
X2100Y24350
X8100Y27850
X9100Y27850
X10100Y27850
X12600Y27850
X13600Y27850
X14600Y27850
X17100Y27850
X18100Y27850
X19100Y27850
X24100Y23850
X24100Y22850
X25100Y22850
X25100Y23850
X19500Y10100
X18600Y10100
X17700Y10100
T07
X21100Y8600
X25100Y8600
T08
X3600Y2350
X5600Y2350
X25100Y11850
X25100Y13850
M30
