%
M48
M72
T01C0.0130
T02C0.0320
T03C0.0394
T04C0.0400
T05C0.0433
T06C0.0440
T07C0.1260
T08C0.1300
%
T01
X5510Y2470
X7130Y8550
X7450Y8550
X7770Y8550
X10150Y10550
X10850Y10150
X11250Y10150
X11650Y10150
X12050Y10150
X13250Y10150
X13650Y10150
X14050Y10150
X13550Y10950
X14450Y10150
X14850Y10150
X14850Y10550
X16538Y11400
X14630Y8380
X14700Y7540
X14670Y6970
X14670Y6400
X15230Y6400
X15620Y6380
X14780Y2420
X15280Y2270
X15580Y1970
X15680Y1470
X15630Y1020
X15330Y670
X14780Y570
X14280Y670
X13980Y1020
X13830Y1520
X14060Y2000
X14380Y2320
X11330Y6370
X11080Y970
X4490Y10300
X4690Y10650
X4740Y11000
X4640Y11350
X4390Y11650
X3790Y11850
X3240Y11650
X3000Y11350
X2900Y10950
X3040Y10450
X3290Y10150
X3640Y10050
X4140Y10100
X3250Y12150
X3650Y13850
X3350Y14350
X3350Y14850
X4150Y16250
X5250Y15950
X4720Y13350
X8250Y13950
X8150Y14750
X9550Y13750
X9550Y13250
X9550Y12850
X9550Y12450
X9550Y12050
X9550Y11650
X10150Y12750
X10350Y13950
X9850Y15350
X9550Y16250
X9300Y17650
X10350Y16850
X10950Y17750
X10350Y18750
X10450Y19950
X10850Y20850
X11300Y19950
X12150Y20250
X12550Y20550
X14050Y20750
X14350Y21450
X14550Y20650
X14750Y21150
X14900Y19850
X15450Y19900
X14150Y19350
X13850Y16850
X15350Y17050
X15350Y16250
X15350Y15450
X13150Y14950
X11750Y15350
X12450Y17450
X11450Y12750
X6810Y18630
X4830Y20040
X3430Y20660
X2940Y20420
X2440Y20300
X1680Y20480
X1000Y20740
X5510Y26090
X6860Y23140
X6440Y22650
X5810Y22440
X6750Y21650
X8850Y21450
X11080Y24590
X13830Y25140
X13980Y24640
X14280Y24290
X14780Y24190
X15330Y24290
X15630Y24640
X15680Y25090
X15580Y25590
X15280Y25890
X14780Y26040
X14380Y25940
X14060Y25620
X14750Y22650
X16748Y20740
X17428Y20480
X18188Y20300
X18688Y20420
X19178Y20660
X20578Y20040
X21558Y22440
X22188Y22650
X22608Y23140
X22498Y21650
X24598Y21450
X26198Y19950
X26598Y20850
X27048Y19950
X27898Y20250
X28298Y20550
X29798Y20750
X30098Y21450
X30298Y20650
X30498Y21150
X30648Y19850
X31198Y19900
X29898Y19350
X29598Y16850
X28898Y14950
X27498Y15350
X26098Y13950
X25298Y13750
X25298Y13250
X25298Y12850
X25298Y12450
X25298Y12050
X25298Y11650
X25898Y10550
X26598Y10150
X26998Y10150
X27398Y10150
X27798Y10150
X28998Y10150
X29398Y10150
X29798Y10150
X29298Y10950
X30198Y10150
X30598Y10150
X30598Y10550
X30378Y8380
X30448Y7540
X30418Y6970
X30418Y6400
X30978Y6400
X31368Y6380
X30528Y2420
X31028Y2270
X31328Y1970
X31428Y1470
X31378Y1020
X31078Y670
X30528Y570
X30028Y670
X29728Y1020
X29578Y1520
X29808Y2000
X30128Y2320
X27078Y6370
X23518Y8550
X23198Y8550
X22878Y8550
X20238Y10300
X19888Y10100
X20438Y10650
X20488Y11000
X20388Y11350
X20138Y11650
X19538Y11850
X18988Y11650
X18748Y11350
X18648Y10950
X18788Y10450
X19038Y10150
X19388Y10050
X18998Y12150
X19398Y13850
X19098Y14350
X19098Y14850
X19898Y16250
X20998Y15950
X20468Y13350
X23998Y13950
X23898Y14750
X25298Y16250
X25598Y15350
X26098Y16850
X26698Y17750
X26098Y18750
X25048Y17650
X22558Y18630
X25898Y12750
X27198Y12750
X28198Y17450
X31098Y17050
X31098Y16250
X31098Y15450
X30498Y22650
X30528Y24190
X31078Y24290
X31378Y24640
X31428Y25090
X31328Y25590
X31028Y25890
X30528Y26040
X30128Y25940
X29808Y25620
X29578Y25140
X29728Y24640
X30028Y24290
X26828Y24590
X27078Y29990
X26998Y33770
X27398Y33770
X27798Y33770
X26598Y33770
X25898Y34170
X25298Y35270
X25298Y35670
X25298Y36070
X25298Y36470
X25298Y36870
X25298Y37370
X25898Y36370
X26098Y37570
X25598Y38970
X25298Y39870
X26098Y40470
X26698Y41370
X26098Y42370
X26198Y43570
X26598Y44470
X27048Y43570
X27898Y43870
X28298Y44170
X29798Y44370
X30298Y44270
X30498Y44770
X30098Y45070
X30498Y46270
X30648Y43470
X31198Y43520
X29898Y42970
X31098Y40670
X31098Y39870
X31098Y39070
X29598Y40470
X28898Y38570
X27498Y38970
X28198Y41070
X25048Y41270
X23898Y38370
X23998Y37570
X20998Y39570
X19898Y39870
X19098Y38470
X19098Y37970
X19398Y37470
X20468Y36970
X19538Y35470
X18988Y35270
X18748Y34970
X18648Y34570
X18788Y34070
X19038Y33770
X19388Y33670
X19888Y33720
X20238Y33920
X20438Y34270
X20488Y34620
X20388Y34970
X20138Y35270
X18998Y35770
X16538Y35020
X14850Y34170
X14850Y33770
X14450Y33770
X14050Y33770
X13650Y33770
X13250Y33770
X13550Y34570
X12050Y33770
X11650Y33770
X11250Y33770
X10850Y33770
X10150Y34170
X9550Y35270
X9550Y35670
X9550Y36070
X9550Y36470
X9550Y36870
X9550Y37370
X10150Y36370
X10350Y37570
X9850Y38970
X9550Y39870
X10350Y40470
X10950Y41370
X10350Y42370
X10450Y43570
X10850Y44470
X11300Y43570
X12150Y43870
X12550Y44170
X14050Y44370
X14550Y44270
X14750Y44770
X14350Y45070
X14750Y46270
X14900Y43470
X15450Y43520
X14150Y42970
X15350Y40670
X15350Y39870
X15350Y39070
X13850Y40470
X13150Y38570
X11750Y38970
X12450Y41070
X9300Y41270
X8150Y38370
X8250Y37570
X5250Y39570
X4150Y39870
X3350Y38470
X3350Y37970
X3650Y37470
X4720Y36970
X3790Y35470
X3240Y35270
X3000Y34970
X2900Y34570
X3040Y34070
X3290Y33770
X3640Y33670
X4140Y33720
X4490Y33920
X4690Y34270
X4740Y34620
X4640Y34970
X4390Y35270
X3250Y35770
X790Y35020
X2440Y43920
X2940Y44040
X3430Y44280
X4830Y43660
X5810Y46060
X6440Y46270
X6860Y46760
X6750Y45270
X8850Y45070
X6810Y42250
X11450Y36370
X14630Y32000
X14700Y31160
X14670Y30590
X14670Y30020
X15230Y30020
X15620Y30000
X11330Y29990
X7770Y32170
X7450Y32170
X7130Y32170
X1680Y44100
X1000Y44360
X16748Y44360
X17428Y44100
X18188Y43920
X18688Y44040
X19178Y44280
X20578Y43660
X21558Y46060
X22188Y46270
X22608Y46760
X22498Y45270
X24598Y45070
X22558Y42250
X27198Y36370
X28998Y33770
X29398Y33770
X29798Y33770
X30198Y33770
X30598Y33770
X30598Y34170
X29298Y34570
X30378Y32000
X30448Y31160
X30418Y30590
X30418Y30020
X30978Y30020
X31368Y30000
X23518Y32170
X23198Y32170
X22878Y32170
X21258Y26090
X21258Y2470
X26828Y970
X790Y11400
T02
X850Y1800
X850Y5800
X1330Y10490
X2330Y10490
X1150Y12250
X1150Y16250
X4200Y12250
X8200Y12250
X8950Y9500
X9950Y9500
X9250Y5800
X9250Y1800
X12350Y1350
X12350Y2350
X16598Y1800
X16598Y5800
X17078Y10490
X18078Y10490
X16898Y12250
X16898Y16250
X19948Y12250
X23948Y12250
X24698Y9500
X25698Y9500
X24998Y5800
X24998Y1800
X28098Y1350
X28098Y2350
X20148Y2100
X20148Y1100
X4400Y1100
X4400Y2100
X4400Y24720
X4400Y25720
X850Y25420
X850Y29420
X1330Y34110
X2330Y34110
X1150Y35870
X1150Y39870
X4200Y35870
X8200Y35870
X8950Y33120
X9950Y33120
X9250Y29420
X9250Y25420
X12350Y24970
X12350Y25970
X16598Y25420
X16598Y29420
X17078Y34110
X18078Y34110
X16898Y35870
X16898Y39870
X19948Y35870
X23948Y35870
X24698Y33120
X25698Y33120
X24998Y29420
X24998Y25420
X28098Y24970
X28098Y25970
X20148Y25720
X20148Y24720
T03
X20698Y23350
X21698Y23350
X24998Y23350
X25998Y23350
X26998Y23350
X27998Y23350
X28998Y23350
X29998Y23350
X30998Y23350
X31198Y31070
X31198Y32070
X31198Y34670
X31198Y35670
X31198Y37170
X31198Y38170
X28298Y35070
X27298Y35070
X26298Y35070
X25998Y46970
X26998Y46970
X27998Y46970
X28998Y46970
X29998Y46970
X30998Y46970
X24998Y46970
X21698Y46970
X20698Y46970
X15250Y46970
X14250Y46970
X13250Y46970
X12250Y46970
X11250Y46970
X10250Y46970
X9250Y46970
X5950Y46970
X4950Y46970
X10550Y35070
X11550Y35070
X12550Y35070
X15450Y34670
X15450Y35670
X15450Y37170
X15450Y38170
X15450Y32070
X15450Y31070
X17198Y24420
X18198Y24420
X15250Y23350
X14250Y23350
X13250Y23350
X12250Y23350
X11250Y23350
X10250Y23350
X9250Y23350
X5950Y23350
X4950Y23350
X2450Y24420
X1450Y24420
X10550Y11450
X11550Y11450
X12550Y11450
X15450Y11050
X15450Y12050
X15450Y13550
X15450Y14550
X15450Y8450
X15450Y7450
X17198Y800
X18198Y800
X26298Y11450
X27298Y11450
X28298Y11450
X31198Y11050
X31198Y12050
X31198Y13550
X31198Y14550
X31198Y8450
X31198Y7450
X2450Y800
X1450Y800
T04
X7600Y18350
X7600Y19350
X7600Y20350
X7600Y21350
X7600Y22350
X7600Y41970
X7600Y42970
X7600Y43970
X7600Y44970
X7600Y45970
X23348Y45970
X23348Y44970
X23348Y43970
X23348Y42970
X23348Y41970
X23348Y22350
X23348Y21350
X23348Y20350
X23348Y19350
X23348Y18350
T05
X27514Y8300
X29482Y8300
X20832Y8050
X18864Y8050
X13734Y8300
X11766Y8300
X5084Y8050
X3116Y8050
X3116Y31670
X5084Y31670
X11766Y31920
X13734Y31920
X18864Y31670
X20832Y31670
X27514Y31920
X29482Y31920
T06
X20348Y41420
X18948Y41720
X18048Y41720
X17148Y41720
X20348Y45420
X4600Y45420
X3200Y41720
X2300Y41720
X1400Y41720
X4600Y41420
X4600Y21800
X3200Y18100
X2300Y18100
X1400Y18100
X4600Y17800
X17148Y18100
X18048Y18100
X18948Y18100
X20348Y17800
X20348Y21800
T07
X14790Y25100
X19568Y34560
X30538Y25100
X19568Y10940
X14790Y1480
X3820Y10940
X3820Y34560
X30538Y1480
T08
X18048Y22100
X2300Y22100
X2300Y45720
X18048Y45720
M30
