G75*
G70*
%OFA0B0*%
%FSLAX24Y24*%
%IPPOS*%
%LPD*%
%AMOC8*
5,1,8,0,0,1.08239X$1,0.0*
%
%ADD10C,0.1340*%
%ADD11R,0.0680X0.0680*%
%ADD12C,0.0680*%
%ADD13C,0.0740*%
%ADD14C,0.0740*%
%ADD15C,0.0740*%
%ADD16C,0.1380*%
%ADD17C,0.0730*%
%ADD18C,0.0710*%
%ADD19C,0.0710*%
%ADD20C,0.0840*%
%ADD21C,0.0370*%
D10*
X003820Y010940D03*
X014790Y001480D03*
X019568Y010940D03*
X014790Y025100D03*
X019568Y034560D03*
X030538Y025100D03*
X030538Y001480D03*
X003820Y034560D03*
D11*
X007600Y045970D03*
X023348Y045970D03*
X023348Y022350D03*
X007600Y022350D03*
D12*
X007600Y021350D03*
X007600Y020350D03*
X007600Y019350D03*
X007600Y018350D03*
X023348Y018350D03*
X023348Y019350D03*
X023348Y020350D03*
X023348Y021350D03*
X023348Y041970D03*
X023348Y042970D03*
X023348Y043970D03*
X023348Y044970D03*
X007600Y044970D03*
X007600Y043970D03*
X007600Y042970D03*
X007600Y041970D03*
D13*
X000850Y001800D03*
X000850Y005800D03*
X001150Y012250D03*
X001150Y016250D03*
X004200Y012250D03*
X008200Y012250D03*
X009250Y005800D03*
X009250Y001800D03*
X016598Y001800D03*
X016598Y005800D03*
X016898Y012250D03*
X016898Y016250D03*
X019948Y012250D03*
X023948Y012250D03*
X024998Y005800D03*
X024998Y001800D03*
X024998Y025420D03*
X024998Y029420D03*
X023948Y035870D03*
X019948Y035870D03*
X016898Y035870D03*
X016898Y039870D03*
X016598Y029420D03*
X016598Y025420D03*
X009250Y025420D03*
X009250Y029420D03*
X008200Y035870D03*
X004200Y035870D03*
X001150Y035870D03*
X001150Y039870D03*
X000850Y029420D03*
X000850Y025420D03*
D14*
X001450Y024420D03*
X002450Y024420D03*
X004600Y021800D03*
X004950Y023350D03*
X005950Y023350D03*
X009250Y023350D03*
X010250Y023350D03*
X011250Y023350D03*
X012250Y023350D03*
X013250Y023350D03*
X014250Y023350D03*
X015250Y023350D03*
X017198Y024420D03*
X018198Y024420D03*
X020348Y021800D03*
X020698Y023350D03*
X021698Y023350D03*
X024998Y023350D03*
X025998Y023350D03*
X026998Y023350D03*
X027998Y023350D03*
X028998Y023350D03*
X029998Y023350D03*
X030998Y023350D03*
X031198Y031070D03*
X031198Y032070D03*
X031198Y034670D03*
X031198Y035670D03*
X031198Y037170D03*
X031198Y038170D03*
X030998Y046970D03*
X029998Y046970D03*
X028998Y046970D03*
X027998Y046970D03*
X026998Y046970D03*
X025998Y046970D03*
X024998Y046970D03*
X021698Y046970D03*
X020698Y046970D03*
X020348Y045420D03*
X020348Y041420D03*
X015450Y038170D03*
X015450Y037170D03*
X015450Y035670D03*
X015450Y034670D03*
X015450Y032070D03*
X015450Y031070D03*
X020348Y017800D03*
X015450Y014550D03*
X015450Y013550D03*
X015450Y012050D03*
X015450Y011050D03*
X015450Y008450D03*
X015450Y007450D03*
X017198Y000800D03*
X018198Y000800D03*
X031198Y007450D03*
X031198Y008450D03*
X031198Y011050D03*
X031198Y012050D03*
X031198Y013550D03*
X031198Y014550D03*
X015250Y046970D03*
X014250Y046970D03*
X013250Y046970D03*
X012250Y046970D03*
X011250Y046970D03*
X010250Y046970D03*
X009250Y046970D03*
X005950Y046970D03*
X004950Y046970D03*
X004600Y045420D03*
X004600Y041420D03*
X004600Y017800D03*
X002450Y000800D03*
X001450Y000800D03*
D15*
X001400Y017770D02*
X001400Y018430D01*
X002300Y018430D02*
X002300Y017770D01*
X003200Y017770D02*
X003200Y018430D01*
X017148Y018430D02*
X017148Y017770D01*
X018048Y017770D02*
X018048Y018430D01*
X018948Y018430D02*
X018948Y017770D01*
X018948Y041390D02*
X018948Y042050D01*
X018048Y042050D02*
X018048Y041390D01*
X017148Y041390D02*
X017148Y042050D01*
X003200Y042050D02*
X003200Y041390D01*
X002300Y041390D02*
X002300Y042050D01*
X001400Y042050D02*
X001400Y041390D01*
D16*
X002300Y045720D03*
X018048Y045720D03*
X018048Y022100D03*
X002300Y022100D03*
D17*
X003116Y031345D02*
X003116Y031994D01*
X005084Y031994D02*
X005084Y031345D01*
X011766Y031595D02*
X011766Y032244D01*
X013734Y032244D02*
X013734Y031595D01*
X018864Y031345D02*
X018864Y031994D01*
X020832Y031994D02*
X020832Y031345D01*
X027514Y031595D02*
X027514Y032244D01*
X029482Y032244D02*
X029482Y031595D01*
X029482Y008625D02*
X029482Y007975D01*
X027514Y007975D02*
X027514Y008625D01*
X020832Y008375D02*
X020832Y007725D01*
X018864Y007725D02*
X018864Y008375D01*
X013734Y008625D02*
X013734Y007975D01*
X011766Y007975D02*
X011766Y008625D01*
X005084Y008375D02*
X005084Y007725D01*
X003116Y007725D02*
X003116Y008375D01*
D18*
X001330Y010490D03*
X004400Y002100D03*
X008950Y009500D03*
X012350Y001350D03*
X017078Y010490D03*
X020148Y002100D03*
X024698Y009500D03*
X028098Y001350D03*
X028098Y024970D03*
X024698Y033120D03*
X020148Y025720D03*
X017078Y034110D03*
X012350Y024970D03*
X008950Y033120D03*
X004400Y025720D03*
X001330Y034110D03*
D19*
X002330Y034110D03*
X004400Y024720D03*
X009950Y033120D03*
X012350Y025970D03*
X018078Y034110D03*
X020148Y024720D03*
X025698Y033120D03*
X028098Y025970D03*
X018078Y010490D03*
X012350Y002350D03*
X009950Y009500D03*
X004400Y001100D03*
X002330Y010490D03*
X020148Y001100D03*
X025698Y009500D03*
X028098Y002350D03*
D20*
X028298Y011450D03*
X027298Y011450D03*
X026298Y011450D03*
X012550Y011450D03*
X011550Y011450D03*
X010550Y011450D03*
X010550Y035070D03*
X011550Y035070D03*
X012550Y035070D03*
X026298Y035070D03*
X027298Y035070D03*
X028298Y035070D03*
D21*
X029298Y034570D03*
X029398Y033770D03*
X028998Y033770D03*
X029798Y033770D03*
X030198Y033770D03*
X030598Y033770D03*
X030598Y034170D03*
X030378Y032000D03*
X030448Y031160D03*
X030418Y030590D03*
X030418Y030020D03*
X030978Y030020D03*
X031368Y030000D03*
X030528Y026040D03*
X031028Y025890D03*
X031328Y025590D03*
X031428Y025090D03*
X031378Y024640D03*
X031078Y024290D03*
X030528Y024190D03*
X030028Y024290D03*
X029728Y024640D03*
X029578Y025140D03*
X029808Y025620D03*
X030128Y025940D03*
X030498Y022650D03*
X030098Y021450D03*
X029798Y020750D03*
X030298Y020650D03*
X030498Y021150D03*
X030648Y019850D03*
X031198Y019900D03*
X029898Y019350D03*
X028298Y020550D03*
X027898Y020250D03*
X027048Y019950D03*
X026598Y020850D03*
X026198Y019950D03*
X026098Y018750D03*
X026698Y017750D03*
X026098Y016850D03*
X025298Y016250D03*
X025598Y015350D03*
X026098Y013950D03*
X025298Y013750D03*
X025298Y013250D03*
X025298Y012850D03*
X025298Y012450D03*
X025298Y012050D03*
X025298Y011650D03*
X025898Y010550D03*
X026598Y010150D03*
X026998Y010150D03*
X027398Y010150D03*
X027798Y010150D03*
X028998Y010150D03*
X029398Y010150D03*
X029798Y010150D03*
X029298Y010950D03*
X030198Y010150D03*
X030598Y010150D03*
X030598Y010550D03*
X030378Y008380D03*
X030448Y007540D03*
X030418Y006970D03*
X030418Y006400D03*
X030978Y006400D03*
X031368Y006380D03*
X030528Y002420D03*
X031028Y002270D03*
X031328Y001970D03*
X031428Y001470D03*
X031378Y001020D03*
X031078Y000670D03*
X030528Y000570D03*
X030028Y000670D03*
X029728Y001020D03*
X029578Y001520D03*
X029808Y002000D03*
X030128Y002320D03*
X027078Y006370D03*
X023518Y008550D03*
X023198Y008550D03*
X022878Y008550D03*
X020238Y010300D03*
X019888Y010100D03*
X020438Y010650D03*
X020488Y011000D03*
X020388Y011350D03*
X020138Y011650D03*
X019538Y011850D03*
X018988Y011650D03*
X018748Y011350D03*
X018648Y010950D03*
X018788Y010450D03*
X019038Y010150D03*
X019388Y010050D03*
X018998Y012150D03*
X019398Y013850D03*
X019098Y014350D03*
X019098Y014850D03*
X019898Y016250D03*
X020998Y015950D03*
X020468Y013350D03*
X023998Y013950D03*
X023898Y014750D03*
X025898Y012750D03*
X027198Y012750D03*
X027498Y015350D03*
X028198Y017450D03*
X029598Y016850D03*
X028898Y014950D03*
X031098Y015450D03*
X031098Y016250D03*
X031098Y017050D03*
X026828Y024590D03*
X024598Y021450D03*
X022498Y021650D03*
X022188Y022650D03*
X022608Y023140D03*
X021558Y022440D03*
X020578Y020040D03*
X019178Y020660D03*
X018688Y020420D03*
X018188Y020300D03*
X017428Y020480D03*
X016748Y020740D03*
X015450Y019900D03*
X014900Y019850D03*
X014550Y020650D03*
X014750Y021150D03*
X014350Y021450D03*
X014050Y020750D03*
X014150Y019350D03*
X012550Y020550D03*
X012150Y020250D03*
X011300Y019950D03*
X010850Y020850D03*
X010450Y019950D03*
X010350Y018750D03*
X010950Y017750D03*
X010350Y016850D03*
X009550Y016250D03*
X009850Y015350D03*
X010350Y013950D03*
X009550Y013750D03*
X009550Y013250D03*
X009550Y012850D03*
X009550Y012450D03*
X009550Y012050D03*
X009550Y011650D03*
X010150Y010550D03*
X010850Y010150D03*
X011250Y010150D03*
X011650Y010150D03*
X012050Y010150D03*
X013250Y010150D03*
X013650Y010150D03*
X014050Y010150D03*
X013550Y010950D03*
X014450Y010150D03*
X014850Y010150D03*
X014850Y010550D03*
X016538Y011400D03*
X014630Y008380D03*
X014700Y007540D03*
X014670Y006970D03*
X014670Y006400D03*
X015230Y006400D03*
X015620Y006380D03*
X014780Y002420D03*
X015280Y002270D03*
X015580Y001970D03*
X015680Y001470D03*
X015630Y001020D03*
X015330Y000670D03*
X014780Y000570D03*
X014280Y000670D03*
X013980Y001020D03*
X013830Y001520D03*
X014060Y002000D03*
X014380Y002320D03*
X011330Y006370D03*
X007770Y008550D03*
X007450Y008550D03*
X007130Y008550D03*
X004490Y010300D03*
X004690Y010650D03*
X004740Y011000D03*
X004640Y011350D03*
X004390Y011650D03*
X003790Y011850D03*
X003240Y011650D03*
X003000Y011350D03*
X002900Y010950D03*
X003040Y010450D03*
X003290Y010150D03*
X003640Y010050D03*
X004140Y010100D03*
X003250Y012150D03*
X003650Y013850D03*
X003350Y014350D03*
X003350Y014850D03*
X004150Y016250D03*
X005250Y015950D03*
X004720Y013350D03*
X008250Y013950D03*
X008150Y014750D03*
X010150Y012750D03*
X011450Y012750D03*
X011750Y015350D03*
X012450Y017450D03*
X013850Y016850D03*
X015350Y017050D03*
X015350Y016250D03*
X015350Y015450D03*
X013150Y014950D03*
X009300Y017650D03*
X006810Y018630D03*
X004830Y020040D03*
X003430Y020660D03*
X002940Y020420D03*
X002440Y020300D03*
X001680Y020480D03*
X001000Y020740D03*
X005510Y026090D03*
X006860Y023140D03*
X006440Y022650D03*
X005810Y022440D03*
X006750Y021650D03*
X008850Y021450D03*
X011080Y024590D03*
X013830Y025140D03*
X013980Y024640D03*
X014280Y024290D03*
X014780Y024190D03*
X015330Y024290D03*
X015630Y024640D03*
X015680Y025090D03*
X015580Y025590D03*
X015280Y025890D03*
X014780Y026040D03*
X014380Y025940D03*
X014060Y025620D03*
X014750Y022650D03*
X014670Y030020D03*
X015230Y030020D03*
X015620Y030000D03*
X014670Y030590D03*
X014700Y031160D03*
X014630Y032000D03*
X014450Y033770D03*
X014850Y033770D03*
X014850Y034170D03*
X014050Y033770D03*
X013650Y033770D03*
X013250Y033770D03*
X013550Y034570D03*
X012050Y033770D03*
X011650Y033770D03*
X011250Y033770D03*
X010850Y033770D03*
X010150Y034170D03*
X009550Y035270D03*
X009550Y035670D03*
X009550Y036070D03*
X009550Y036470D03*
X009550Y036870D03*
X009550Y037370D03*
X010150Y036370D03*
X010350Y037570D03*
X009850Y038970D03*
X009550Y039870D03*
X010350Y040470D03*
X010950Y041370D03*
X010350Y042370D03*
X010450Y043570D03*
X010850Y044470D03*
X011300Y043570D03*
X012150Y043870D03*
X012550Y044170D03*
X014050Y044370D03*
X014550Y044270D03*
X014750Y044770D03*
X014350Y045070D03*
X014750Y046270D03*
X014900Y043470D03*
X015450Y043520D03*
X014150Y042970D03*
X015350Y040670D03*
X015350Y039870D03*
X015350Y039070D03*
X013850Y040470D03*
X013150Y038570D03*
X011750Y038970D03*
X012450Y041070D03*
X009300Y041270D03*
X008150Y038370D03*
X008250Y037570D03*
X005250Y039570D03*
X004150Y039870D03*
X003350Y038470D03*
X003350Y037970D03*
X003650Y037470D03*
X004720Y036970D03*
X003790Y035470D03*
X003240Y035270D03*
X003000Y034970D03*
X002900Y034570D03*
X003040Y034070D03*
X003290Y033770D03*
X003640Y033670D03*
X004140Y033720D03*
X004490Y033920D03*
X004690Y034270D03*
X004740Y034620D03*
X004640Y034970D03*
X004390Y035270D03*
X003250Y035770D03*
X000790Y035020D03*
X002440Y043920D03*
X002940Y044040D03*
X003430Y044280D03*
X004830Y043660D03*
X005810Y046060D03*
X006440Y046270D03*
X006860Y046760D03*
X006750Y045270D03*
X008850Y045070D03*
X006810Y042250D03*
X011450Y036370D03*
X007770Y032170D03*
X007450Y032170D03*
X007130Y032170D03*
X011330Y029990D03*
X016538Y035020D03*
X018648Y034570D03*
X018748Y034970D03*
X018988Y035270D03*
X018998Y035770D03*
X019538Y035470D03*
X020138Y035270D03*
X020388Y034970D03*
X020488Y034620D03*
X020438Y034270D03*
X020238Y033920D03*
X019888Y033720D03*
X019388Y033670D03*
X019038Y033770D03*
X018788Y034070D03*
X020468Y036970D03*
X019398Y037470D03*
X019098Y037970D03*
X019098Y038470D03*
X019898Y039870D03*
X020998Y039570D03*
X022558Y042250D03*
X020578Y043660D03*
X019178Y044280D03*
X018688Y044040D03*
X018188Y043920D03*
X017428Y044100D03*
X016748Y044360D03*
X021558Y046060D03*
X022188Y046270D03*
X022608Y046760D03*
X022498Y045270D03*
X024598Y045070D03*
X026198Y043570D03*
X026598Y044470D03*
X027048Y043570D03*
X027898Y043870D03*
X028298Y044170D03*
X029798Y044370D03*
X030298Y044270D03*
X030498Y044770D03*
X030098Y045070D03*
X030498Y046270D03*
X030648Y043470D03*
X031198Y043520D03*
X029898Y042970D03*
X031098Y040670D03*
X031098Y039870D03*
X031098Y039070D03*
X029598Y040470D03*
X028898Y038570D03*
X027498Y038970D03*
X026098Y037570D03*
X025898Y036370D03*
X025298Y036470D03*
X025298Y036870D03*
X025298Y037370D03*
X025298Y036070D03*
X025298Y035670D03*
X025298Y035270D03*
X025898Y034170D03*
X026598Y033770D03*
X026998Y033770D03*
X027398Y033770D03*
X027798Y033770D03*
X027198Y036370D03*
X025598Y038970D03*
X025298Y039870D03*
X026098Y040470D03*
X026698Y041370D03*
X026098Y042370D03*
X025048Y041270D03*
X023898Y038370D03*
X023998Y037570D03*
X023518Y032170D03*
X023198Y032170D03*
X022878Y032170D03*
X027078Y029990D03*
X021258Y026090D03*
X022558Y018630D03*
X025048Y017650D03*
X021258Y002470D03*
X026828Y000970D03*
X011080Y000970D03*
X005510Y002470D03*
X000790Y011400D03*
X001680Y044100D03*
X001000Y044360D03*
X028198Y041070D03*
M02*
